<?xml version="1.0" encoding="utf-8"?>
<!-- Generator: Adobe Illustrator 23.0.0, SVG Export Plug-In . SVG Version: 6.00 Build 0)  -->
<svg version="1.1" id="Layer_1" xmlns="http://www.w3.org/2000/svg" xmlns:xlink="http://www.w3.org/1999/xlink" x="0px" y="0px"
	 viewBox="0 0 720 330" style="enable-background:new 0 0 720 330;" xml:space="preserve">
<style type="text/css">
	.st0{fill:#916B4E;}
	.st1{fill:#AA7E5C;}
	.st2{fill:#E0C1A2;}
	.st3{fill:#ECCFB1;}
	.st4{fill:#E7E2DA;}
	.st5{fill:#637480;}
	.st6{fill:#FFE0B1;}
	.st7{fill:#7E95A3;}
	.st8{fill:#B8824D;}
	.st9{fill:#E0C79A;}
	.st10{fill:#738895;}
	.st11{fill:#E7CBA0;}
	.st12{fill:#D7BD93;}
	.st13{fill:#544B4B;}
	.st14{fill:#7F7058;}
	.st15{fill:#FFFFFF;}
	.st16{fill:#5D5454;}
</style>
<g id="legLeft_FL_FL_FL_FL_FL_FL_FL_FL_FL_FL_FL_FL_FL_FL_FL_FL_FL" transform="matrix( -0.86602783203125, -0.499969482421875, -0.499969482421875, 0.86602783203125, 198.55,309.4) ">
	<g transform="matrix( 1, 0, 0, 1, 0,0) ">
		<g>
			<g>
				<path class="st0" d="M-47.9-155l0-2.9h-17.8v2L-47.9-155z"/>
				<path class="st1" d="M-47.9-148.2l0-6.8l-17.7-0.9l1.6,2.7h-1.6c-1.2,0.6-2.3,1.6-3.2,2.9v2.1L-47.9-148.2z"/>
				<path class="st2" d="M-47.8-157.9l0-3.4l-17.8,0v3.4H-47.8z"/>
				<path class="st3" d="M-50.4-168.7c-1.7-1.7-3.8-2.5-6.3-2.5h0c-2.5,0-4.5,0.8-6.3,2.5c-1.7,1.7-2.6,3.8-2.6,6.2v1.3l17.8,0v-1.3
					C-47.8-165-48.7-167-50.4-168.7z"/>
			</g>
		</g>
	</g>
</g>
<g id="armRight_FL_FL_FL_FL_FL_FL_FL_FL_FL_FL_FL_FL_FL_FL_FL_FL_FL_FL_FL_FL" transform="matrix( 0.915496826171875, 0.402313232421875, 0.402313232421875, -0.915496826171875, 222.45,271.25) ">
	<g transform="matrix( 1, 0, 0, 1, 0,0) ">
		<g>
			<g>
				<path class="st4" d="M79.6,166c0-0.1,0-0.1,0.1-0.2l-14.9-2.7c-1.1,1.6-1.2,3.4-0.3,5.6l1.1-0.2L79.6,166z"/>
				<path class="st5" d="M80.1,165.9l0.5-3l-15.4-2.8c-0.9,0.4-1,1.4-0.5,3l14.9,2.7L80.1,165.9z"/>
				<path class="st6" d="M65.5,168.5c-0.3,3.6-0.3,7.2-0.1,10.8c2,1.9,4.6,3.2,7.6,3.8c3.1-5.2,5.3-10.9,6.5-17.1L65.5,168.5z"/>
				<path class="st7" d="M80,153.4c-1.2-1.8-2.9-2.9-5.1-3.3h0c-0.4-0.1-0.8-0.1-1.2-0.1c-3.4-0.1-6.2,3.3-8.5,10.1l15.4,2.8
					l0.7-3.6C81.7,157.2,81.3,155.2,80,153.4z"/>
			</g>
		</g>
	</g>
</g>
<g id="body_FL_FL_FL_FL_FL_FL_FL_FL_FL_FL_FL_FL_FL_FL_FL_FL_FL_FL" transform="matrix( 0.8961029052734375, -0.1512908935546875, 0, 1, 207.35,295.15) ">
	<g transform="matrix( 1, 0, 0, 1, 0,0) ">
		<g>
			<g>
				<path class="st8" d="M166.6-81.6v-4.1H141H130h-2.4v4L166.6-81.6 M135.5-110.2c-0.4-0.8-0.9-1.6-1.5-2.4h-6.4v17.5
					c8.6-1.5,11.8-5.3,9.5-11.7l-2.3-1.2C134.9-108.8,135.1-109.5,135.5-110.2 M166.6-112.6h-6.1c0.9,2.1,1.1,4.3,0.6,6.6
					c-0.8,4.1,1,6.7,5.5,7.8V-112.6z"/>
				<path class="st9" d="M149.2-100.7l11.3-11.9l-23.2,0L149.2-100.7z"/>
				<path class="st5" d="M161.1-106c0.5-2.3,0.3-4.5-0.6-6.6l-11.3,11.9L161.1-106 M135.5-110.2c-0.4,0.7-0.6,1.4-0.7,2.2l2.3,1.2
					l12.1,6.1l-11.9-11.9C136.5-111.9,135.9-111.1,135.5-110.2z"/>
				<path class="st7" d="M137.1-106.8c2.3,6.3-0.9,10.2-9.5,11.7v9.5h2.4l7.3-5.1l3.7,5.1h25.6v-12.5c-4.5-1.1-6.3-3.8-5.5-7.8
					l-11.9,5.3L137.1-106.8 M150.3-97.1c-0.3-0.3-0.5-0.7-0.5-1.1s0.2-0.8,0.5-1.1c0.3-0.3,0.6-0.5,1.1-0.5c0.4,0,0.8,0.2,1,0.5
					c0.3,0.3,0.5,0.7,0.5,1.1s-0.2,0.8-0.5,1.1c-0.3,0.3-0.6,0.4-1,0.4C151-96.7,150.6-96.8,150.3-97.1 M149-92.8
					c2.4,0,4.4,0.2,6.2,0.7c1.5,0.4,2.4,0.9,2.5,1.4h-17.3c0.1-0.5,1-1,2.5-1.4C144.5-92.6,146.6-92.8,149-92.8 M134-112.6
					c0.6,0.8,1.1,1.6,1.5,2.4c0.4-0.9,1-1.7,1.8-2.4H134z"/>
				<path class="st10" d="M155.1-92.2c-1.7-0.4-3.8-0.7-6.2-0.7c-2.4,0-4.4,0.2-6.1,0.7c-1.5,0.4-2.4,0.9-2.5,1.4h17.3
					C157.5-91.3,156.7-91.8,155.1-92.2z"/>
				<path class="st4" d="M149.8-98.2c0,0.4,0.2,0.8,0.5,1.1c0.3,0.3,0.6,0.4,1.1,0.4c0.4,0,0.8-0.2,1-0.4c0.3-0.3,0.5-0.7,0.5-1.1
					s-0.2-0.8-0.5-1.1c-0.3-0.3-0.6-0.5-1-0.5c-0.4,0-0.8,0.2-1.1,0.5C150-99,149.8-98.6,149.8-98.2 M137.3-90.7l-7.3,5.1H141
					L137.3-90.7z"/>
			</g>
		</g>
	</g>
</g>
<g id="armLeft_FL_FL_FL_FL_FL_FL_FL_FL_FL_FL_FL_FL_FL_FL_FL_FL_FL_FL" transform="matrix( 0.7775726318359375, 0.628753662109375, -0.628753662109375, 0.7775726318359375, 189.35,282.35) ">
	<g transform="matrix( 1, 0, 0, 1, 0,0) ">
		<g>
			<g>
				<path class="st4" d="M35.7-162.1c0-0.1,0-0.1,0-0.2L20.9-165c-1.1,1.6-1.2,3.4-0.3,5.6l1-0.2L35.7-162.1z"/>
				<path class="st5" d="M36.3-162.2l0.5-2.9L21.4-168c-0.9,0.4-1,1.4-0.5,3l14.9,2.7L36.3-162.2z"/>
				<path class="st6" d="M21.7-159.6c-0.3,3.6-0.3,7.2,0,10.8c2,1.9,4.5,3.2,7.5,3.8c3.1-5.2,5.3-10.9,6.5-17L21.7-159.6z"/>
				<path class="st7" d="M36.2-174.7c-1.2-1.8-2.9-2.9-5-3.3h-0.1c-0.4-0.1-0.8-0.1-1.1-0.1c-3.4-0.1-6.2,3.3-8.5,10.1l15.4,2.8
					l0.7-3.6C37.8-170.9,37.4-172.9,36.2-174.7z"/>
			</g>
		</g>
	</g>
</g>
<g id="handLeft_FL_FL_FL_FL_FL_FL_FL_FL_FL_FL_FL_FL_FL_FL_FL_FL_FL_FL" transform="matrix( 0.7437591552734375, 0.668426513671875, -0.668426513671875, 0.7437591552734375, 172.55,304.85) ">
	<g transform="matrix( 1, 0, 0, 1, 0,0) ">
		<g>
			<g>
				<path class="st6" d="M26.5-174.3c-1.2-3.3-2.6-5.7-4.3-7.2l-9.6,2.6c-0.8,0.2-1.1,0.7-0.9,1.4l0.2,0.6c1.8,8.1,5,11.5,9.6,10.3
					c1.6-0.4,3.2-1,4.8-1.9c1.1-0.5,1.5-1.2,1.3-2l0-0.3c-0.3-1-0.5-1.9-0.8-2.8v0L26.5-174.3 M13.5-175.5c0-0.3,0.3-0.7,1.1-1.2
					c0.7-0.5,1.7-0.9,2.8-1.3c1.2-0.4,2.1-0.6,2.9-0.7c0.9-0.1,1.3,0,1.4,0.3c0.1,0.3-0.3,0.7-1,1.1c-0.7,0.5-1.7,0.9-2.8,1.4
					c-1.1,0.4-2.1,0.6-2.9,0.7C14-175,13.5-175.2,13.5-175.5z"/>
				<path class="st11" d="M14.6-176.6c-0.8,0.5-1.1,0.9-1.1,1.2c0.1,0.3,0.5,0.4,1.4,0.3c0.8-0.1,1.8-0.3,2.9-0.7
					c1.2-0.4,2.1-0.9,2.8-1.4c0.7-0.5,1.1-0.8,1-1.1c0-0.3-0.5-0.4-1.4-0.3c-0.8,0.1-1.8,0.3-2.9,0.7
					C16.2-177.5,15.3-177.1,14.6-176.6 M26.7-173.6c2.1-2.9,0.6-5.5-4.5-7.9c1.6,1.5,3.1,3.9,4.3,7.2L26.7-173.6L26.7-173.6z"/>
			</g>
		</g>
	</g>
</g>
<g id="handRight_FL_FL_FL_FL_FL_FL_FL_FL_FL_FL_FL_FL_FL_FL_FL_FL_FL_FL_FL" transform="matrix( 0.602294921875, 0.7982330322265625, 0.7982330322265625, -0.602294921875, 233.7,252.15) ">
	<g transform="matrix( 1, 0, 0, 1, 0,0) ">
		<g>
			<g>
				<path class="st6" d="M-6.9,171.6c-1.2-3.3-2.6-5.7-4.3-7.1l-9.6,2.5c-0.8,0.2-1.1,0.7-0.9,1.4l0.1,0.6c1.8,8.1,5,11.5,9.6,10.3
					c1.6-0.4,3.3-1,4.8-1.8c1.1-0.5,1.5-1.2,1.3-2l-0.1-0.3c-0.3-1-0.5-1.9-0.8-2.8v0.1L-6.9,171.6 M-19.9,170.4
					c0-0.3,0.3-0.7,1.1-1.2c0.7-0.5,1.7-0.9,2.8-1.3c1.2-0.4,2.2-0.6,2.9-0.7c0.9-0.1,1.3,0,1.4,0.3c0.1,0.3-0.3,0.7-1,1.1
					c-0.7,0.5-1.7,1-2.8,1.4c-1.1,0.4-2.1,0.6-3,0.7C-19.4,170.8-19.8,170.7-19.9,170.4z"/>
				<path class="st11" d="M-18.8,169.3c-0.8,0.5-1.1,0.9-1.1,1.2c0.1,0.3,0.5,0.4,1.4,0.3c0.8-0.1,1.8-0.3,3-0.7
					c1.2-0.4,2.1-0.9,2.8-1.4c0.7-0.5,1.1-0.8,1-1.1c0-0.3-0.5-0.4-1.4-0.3c-0.8,0.1-1.8,0.3-2.9,0.7
					C-17.1,168.4-18.1,168.8-18.8,169.3 M-6.7,172.3c2.1-2.9,0.6-5.5-4.5-7.9c1.6,1.5,3.1,3.8,4.3,7.1L-6.7,172.3L-6.7,172.3z"/>
			</g>
		</g>
	</g>
</g>
<g id="legRight_FL_FL_FL_FL_FL_FL_FL_FL_FL_FL_FL_FL_FL_FL_FL_FL_FL" transform="matrix( -0.8993072509765625, -0.2700347900390625, -0.2588043212890625, 0.9659271240234375, 220.15,300.9) ">
	<g transform="matrix( 1, 0, 0, 1, 0,0) ">
		<g>
			<g>
				<path class="st0" d="M-94.8-137.6l0-2.9l-17.8,0v2L-94.8-137.6z"/>
				<path class="st1" d="M-94.8-130.9v-6.8l-17.7-0.9l1.6,2.6h-1.6c-1.2,0.6-2.3,1.6-3.3,2.9v2.1H-94.8z"/>
				<path class="st2" d="M-94.8-140.5v-3.4h-17.8v3.4L-94.8-140.5z"/>
				<path class="st3" d="M-97.3-151.4c-1.7-1.7-3.8-2.5-6.3-2.5h0c-2.5,0-4.6,0.8-6.3,2.5c-1.7,1.7-2.6,3.8-2.6,6.2v1.3h17.8v-1.3
					C-94.8-147.6-95.6-149.7-97.3-151.4z"/>
			</g>
		</g>
	</g>
</g>
<g transform="matrix( 0.990966796875, -0.133819580078125, 0.133819580078125, 0.990966796875, 203.2,278.4) ">
	<g transform="matrix( 1, 0, 0, 1, 0,0) ">
		<g>
			<g>
				<path class="st12" d="M152-92.1c1.2-0.8,2-1.6,2.4-2.6l-19.2,0c0.5,1,1.3,1.8,2.4,2.6c2,1.3,4.3,1.9,7.1,1.9S150-90.8,152-92.1z
					"/>
				<path class="st6" d="M159.1-102.7c3.1,1.1,5-0.5,5.8-4.6c0-1.8,0-3.6-0.1-5.4c-0.1-2.3-0.4-4.7-0.8-7.1c-0.4-3-2.1-4.4-5.1-4.4
					l-30.3,0c-2.9,0-4.6,1.5-5.1,4.5c-0.4,2.6-0.6,5.2-0.7,7.8c2.2,7.5,5,10.5,8.4,8.9c0.8-0.3,1.6-0.6,2.4-0.8
					c3.3-1,7-1.5,11.1-1.5C150.3-105.4,155-104.5,159.1-102.7z"/>
				<path class="st4" d="M164.3-99.7c0.4-2.5,0.6-5.1,0.7-7.7c-0.8,4.1-2.7,5.7-5.8,4.6c-4.1-1.8-8.9-2.7-14.4-2.7
					c-4.1,0-7.8,0.5-11.1,1.5c-0.8,0.2-1.6,0.5-2.4,0.8c-3.5,1.6-6.3-1.4-8.4-8.9c-0.2,4.2,0.1,8.5,0.7,12.8c0.1,0.4,0.2,0.7,0.3,1
					c0.1,0.5,0.3,0.9,0.5,1.3c0.8,1.5,2.3,2.3,4.3,2.3h6.6l19.2,0l4.6,0c2.8,0,4.5-1.3,5.1-4c0-0.2,0.1-0.4,0.1-0.6
					C164.2-99.4,164.3-99.5,164.3-99.7z"/>
			</g>
		</g>
	</g>
	<g transform="matrix( 1, 0, 0, 1, 0,0) ">
		<g>
			<g>
				<path class="st13" d="M151.7-116.8l0.2,3.3l8.5-2.3C158-117.6,155.1-117.9,151.7-116.8 M141.9-115.4l0.2-3.3
					c-3.4-1.1-6.3-0.8-8.7,1L141.9-115.4z"/>
				<path class="st14" d="M153-100.9c0.3-0.1,0.5-0.3,0.6-0.5c0.1-0.2,0.1-0.5,0.1-0.8c-0.1-0.3-0.3-0.5-0.5-0.6
					c-0.2-0.1-0.5-0.2-0.8-0.1c-3.6,1.1-6.7,0.8-9.3-0.9c-0.2-0.2-0.5-0.2-0.8-0.2c-0.3,0-0.5,0.2-0.6,0.4c-0.2,0.2-0.2,0.5-0.1,0.8
					c0,0.3,0.2,0.5,0.4,0.7C145.1-100,148.8-99.6,153-100.9z"/>
				<path class="st15" d="M140.3-112.8c-0.7-0.7-1.5-1.1-2.6-1.1s-1.9,0.4-2.6,1.1c-0.7,0.8-1,1.7-1,2.7s0.3,1.9,1,2.7
					c0.7,0.8,1.6,1.2,2.7,1.2c1,0,1.9-0.4,2.6-1.2c0.7-0.7,1.1-1.6,1.1-2.7S141-112,140.3-112.8 M158.9-112.8
					c-0.7-0.7-1.5-1.1-2.6-1.1c-1,0-1.9,0.4-2.6,1.1c-0.7,0.8-1,1.7-1,2.7s0.3,1.9,1,2.7c0.7,0.8,1.6,1.2,2.6,1.2
					c1,0,1.9-0.4,2.6-1.2c0.7-0.7,1.1-1.6,1.1-2.7S159.6-112,158.9-112.8z"/>
			</g>
		</g>
	</g>
	<g transform="matrix( 1, 0, 0, 1, 0,0) ">
		<g>
			<g>
				<path class="st14" d="M140-107.9c0.4-0.6,0.6-1.3,0.6-2.2c0-0.9-0.2-1.6-0.6-2.3c-0.4-0.6-0.9-0.9-1.5-0.9s-1.1,0.3-1.6,0.9
					c-0.4,0.6-0.6,1.4-0.6,2.3c0,0.9,0.2,1.6,0.6,2.2c0.4,0.6,0.9,0.9,1.6,0.9C139.1-106.9,139.6-107.2,140-107.9 M156.8-107.9
					c0.4-0.6,0.7-1.3,0.7-2.2s-0.2-1.6-0.7-2.3c-0.4-0.6-0.9-0.9-1.5-0.9c-0.6,0-1.1,0.3-1.6,0.9c-0.4,0.6-0.6,1.4-0.6,2.3
					s0.2,1.6,0.6,2.2c0.4,0.6,0.9,1,1.6,1S156.4-107.2,156.8-107.9z"/>
			</g>
		</g>
	</g>
	<g transform="matrix( 1, 0, 0, 1, 0,0) ">
		<g>
			<g>
				<path class="st16" d="M159.5-142.8c0.4-0.4,0.9-0.7,1.5-0.8c-5.7-0.8-12.4,0.2-19.9,3.1c-0.2,0-0.3,0.1-0.5,0.1
					c-3.8,1.1-8.1,2.8-13,5.1l-1.3,3.1l-3.1-1.4l-3,6.8c-1.9,5-0.9,11.7,3,20l6-14.9C135.1-132.1,145.2-139.2,159.5-142.8
					 M158.4-139.7l4.1,18.8l2.4,8.1l1.1-16.7L158.4-139.7z"/>
				<path class="st13" d="M147.1-121.1c4.8,1.1,10,1.1,15.4,0.2l-4.1-18.8c0.1-1.4,0.5-2.4,1.1-3.1c-14.3,3.6-24.5,10.7-30.4,21.1
					c3.6-1.8,7.3-2.3,11.1-1.4c2,0.6,3.7,1.8,5.1,3.6L147.1-121.1z"/>
			</g>
		</g>
	</g>
</g>
</svg>
