<svg id="Layer_1" data-name="Layer 1" xmlns="http://www.w3.org/2000/svg" viewBox="0 0 70 70"><defs><style>.cls-1{fill:#cfa67c;}.cls-2{fill:#c58f5c;}.cls-3{fill:#93db24;}.cls-4{fill:#c1d1d2;}.cls-5{fill:#bbcbcc;}.cls-6{fill:#a7b7b8;}</style></defs><title>dirt</title><path class="cls-1" d="M302.35,384.25v-2h70v2h-70" transform="translate(-302.35 -382.25)"/><path class="cls-2" d="M372.35,391.9h-.1l.1.65v7.35q-16.31-7.8-35,0-16.31,7.75-35,0v-7.2l.15-.8h-.15v-7.65h70v7.65" transform="translate(-302.35 -382.25)"/><path class="cls-3" d="M372.35,391.9v.65l-.1-.65h.1m-70,.8v-.8h.15l-.15.8" transform="translate(-302.35 -382.25)"/><path class="cls-4" d="M372.35,420.75v15l-11.65-11.5L349,435.75l-11.6-11.5-11.7,11.5L314,424.25l-1.45,1.45L302.4,435.75h0v-15L314,409.25l11.7,11.5,11.7-11.5,11.6,11.5,11.7-11.5,11.65,11.5m0,30.1v1.4h-70V451l1.8-1.8,0,0,2.15-2.05.7-.7,7.1-7.1,11.7,11.5,11.7-11.5,11.6,11.5,11.7-11.5,9.9,9.8,0,.05,1.75,1.75" transform="translate(-302.35 -382.25)"/><path class="cls-5" d="M372.35,403.9v16.85l-11.65-11.5L349,420.75l-11.6-11.5-11.7,11.5L314,409.25l-11.65,11.5V403.9q18.7,7.75,35,0,18.7-7.8,35,0m0,31.85v15.1l-1.75-1.75,0-.05-9.9-9.8-11.7,11.5-11.6-11.5-11.7,11.5-11.7-11.5-7.1,7.1-.7.7-2.15,2.05,0,0-1.8,1.8v-15.2h0l10.15-10.05,1.45-1.45,11.7,11.5,11.7-11.5,11.6,11.5,11.7-11.5,11.65,11.5" transform="translate(-302.35 -382.25)"/><path class="cls-6" d="M372.35,399.9v4q-16.31-7.8-35,0-16.31,7.75-35,0v-4q18.7,7.75,35,0,18.7-7.8,35,0" transform="translate(-302.35 -382.25)"/></svg>